# xmcd
# 
# Track frame offsets:
#     150
#     19202
#     39712
#     59907
#     72875
#     91047
#     112435
#     126522
#     146865
#     159917
#     182567
#     206910
# 
# Disc length: 3060
# 
# Revision: 2
# Processed by: cddbd v1.5.2PL0 Copyright (c) Steve Scherf et al.
# Submitted via: fre:ac v1.1beta2
# 
DISCID=bd0bf20c
DTITLE=Various Artist - NAJ - JESTEM KOBIETĄ
DYEAR=0
DGENRE=
TTITLE0=EDYTA GÓRNIAK - Jestem Kobietą
TTITLE1=HEY - List
TTITLE2=RENATA PRZEMYK - Ten Taniec
TTITLE3=MAANAM - Róża
TTITLE4=CLOSTERKELLER - Scarlett
TTITLE5=O.N.A. - Drzwi
TTITLE6=VARIUS MANX - Zanim Zrozumiesz
TTITLE7=KASIA KOWALSKA - Jak Rzecz
TTITLE8=JUSTYNA STECZKOWSKA - Sama
TTITLE9=BIG DAY - Przestrzeń
TTITLE10=EDYTA BARTOSIEWICZ - Koziorożec
TTITLE11=KAYAH - Jak Liść
EXTD=
EXTT0=
EXTT1=
EXTT2=
EXTT3=
EXTT4=
EXTT5=
EXTT6=
EXTT7=
EXTT8=
EXTT9=
EXTT10=
EXTT11=
PLAYORDER=
